<?xml version="1.0" standalone="no"?>
<svg viewBox="0 0 200 200" xmlns="http://www.w3.org/2000/svg">
  <path fill="#FDC435" d="M40.8,-62.4C53.5,-55.3,64.9,-45.1,71.2,-32.2C77.5,-19.4,78.8,-3.9,76.7,11C74.6,26,69,40.5,58.8,49.1C48.5,57.8,33.5,60.5,18.3,67.3C3,74.1,-12.5,84.9,-24.6,82.1C-36.8,79.4,-45.4,63.1,-53.4,49C-61.4,34.9,-68.6,22.9,-69.6,10.5C-70.5,-1.8,-65.2,-14.6,-58.9,-26.3C-52.6,-38.1,-45.4,-48.8,-35.5,-57.2C-25.5,-65.5,-12.8,-71.6,0.6,-72.6C14,-73.6,28.1,-69.5,40.8,-62.4Z" transform="translate(100 100)" />
</svg>
