<?xml version="1.0" standalone="no"?>
<svg viewBox="0 0 200 200" xmlns="http://www.w3.org/2000/svg">
  <path fill="#FDC435" d="M41.7,-61.4C54.8,-56.5,66.7,-46.2,70.2,-33.5C73.7,-20.9,68.6,-5.9,63.8,7.3C59,20.4,54.3,31.7,47.8,44.2C41.3,56.7,33,70.4,21.7,73.5C10.5,76.5,-3.7,68.9,-19.2,64.7C-34.6,60.4,-51.3,59.7,-61.4,51.3C-71.5,43,-74.9,27.1,-77.8,10.9C-80.6,-5.4,-82.8,-22.1,-75.7,-33.3C-68.6,-44.5,-52.2,-50.1,-38.1,-54.6C-23.9,-59,-12,-62.1,1.2,-64C14.3,-65.8,28.6,-66.2,41.7,-61.4Z" transform="translate(100 100)" />
</svg>
