<?xml version="1.0" standalone="no"?>
<svg viewBox="0 0 200 200" xmlns="http://www.w3.org/2000/svg">
  <path fill="#FDC435" d="M44.9,-65.7C58.7,-61.1,70.6,-49.4,75.8,-35.4C81,-21.4,79.5,-5.1,77.3,11.2C75,27.4,72,43.6,63.1,55.6C54.1,67.6,39.3,75.5,23.7,79.4C8.2,83.4,-8.1,83.3,-21.6,77.5C-35,71.7,-45.6,60.2,-57,48.5C-68.3,36.9,-80.5,25.1,-84,11.1C-87.5,-2.9,-82.3,-19,-74.7,-33.5C-67.1,-48,-57.2,-60.7,-44.3,-65.7C-31.5,-70.8,-15.7,-68.1,-0.1,-68C15.6,-67.9,31.2,-70.4,44.9,-65.7Z" transform="translate(100 100)" />
</svg>
