<?xml version="1.0" standalone="no"?>
<svg viewBox="0 0 200 200" xmlns="http://www.w3.org/2000/svg">
  <path fill="#FDC435" d="M48.1,-75.1C61.5,-66.3,70.9,-51.5,76.2,-35.9C81.5,-20.4,82.8,-4.2,81.1,12.1C79.4,28.3,74.7,44.5,64,53.7C53.3,62.9,36.5,65.1,20.8,68.8C5.1,72.4,-9.6,77.5,-23.3,75.3C-37,73.1,-49.7,63.6,-59,51.7C-68.2,39.9,-74.1,25.7,-78.3,10C-82.5,-5.7,-85,-22.8,-80.2,-38C-75.4,-53.1,-63.2,-66.2,-48.6,-74.5C-34,-82.8,-17,-86.3,0.2,-86.6C17.4,-86.9,34.7,-84,48.1,-75.1Z" transform="translate(100 100)" />
</svg>
