<?xml version="1.0" standalone="no"?>
<svg viewBox="0 0 200 200" xmlns="http://www.w3.org/2000/svg">
  <path fill="#FDC435" d="M38.7,-62.6C53.1,-58.7,69.9,-54.3,76.7,-43.8C83.5,-33.3,80.5,-16.7,80.2,-0.2C79.9,16.3,82.3,32.6,76.3,44.6C70.3,56.6,55.9,64.2,41.8,71.9C27.6,79.6,13.8,87.3,-0.3,87.8C-14.4,88.2,-28.7,81.4,-38.9,71.4C-49.1,61.5,-55.1,48.4,-61.3,35.9C-67.6,23.5,-74.2,11.8,-76.5,-1.4C-78.9,-14.5,-77.2,-29,-69.2,-38.6C-61.3,-48.2,-47.2,-52.8,-34.7,-57.8C-22.1,-62.8,-11,-68.2,0.5,-69.1C12.1,-70.1,24.2,-66.5,38.7,-62.6Z" transform="translate(100 100)" />
</svg>
