<?xml version="1.0" standalone="no"?>
<svg viewBox="0 0 200 200" xmlns="http://www.w3.org/2000/svg">
  <path fill="#F1C21B" d="M24,-46.4C32,-37,39.9,-32.3,51.1,-25.4C62.3,-18.4,76.8,-9.2,77.5,0.4C78.2,10.1,65.2,20.1,54.2,27.3C43.2,34.6,34.1,39,25.4,47.1C16.7,55.2,8.3,67,-2.2,70.7C-12.6,74.4,-25.3,70.1,-36.7,63.5C-48.1,56.9,-58.2,48.2,-60.7,37.2C-63.2,26.3,-58.1,13.1,-55.8,1.4C-53.4,-10.4,-53.6,-20.8,-53.1,-35.2C-52.6,-49.5,-51.2,-68,-42.2,-76.8C-33.2,-85.6,-16.6,-84.9,-4.3,-77.4C8,-70,16,-55.8,24,-46.4Z" transform="translate(100 100)" />
</svg>
