<?xml version="1.0" standalone="no"?>
<svg viewBox="0 0 200 200" xmlns="http://www.w3.org/2000/svg">
  <path fill="#FDC435" d="M39,-65.2C53.2,-59.4,69.1,-54.2,77.4,-43.5C85.8,-32.7,86.5,-16.4,85.5,-0.6C84.5,15.2,81.8,30.4,74.9,43.6C67.9,56.8,56.8,67.9,43.6,76.4C30.4,84.8,15.2,90.6,0.3,90.1C-14.6,89.5,-29.2,82.6,-38.3,71.8C-47.4,61,-51,46.3,-58,33.7C-64.9,21,-75.1,10.5,-77.8,-1.6C-80.5,-13.6,-75.7,-27.3,-67.8,-38.2C-59.8,-49.1,-48.9,-57.4,-37.1,-64.6C-25.3,-71.8,-12.6,-77.9,-0.1,-77.7C12.4,-77.5,24.8,-71,39,-65.2Z" transform="translate(100 100)" />
</svg>
