<svg width="2692" height="935" viewBox="0 0 2692 935" fill="none" xmlns="http://www.w3.org/2000/svg">
<path fill-rule="evenodd" clip-rule="evenodd" d="M2243.35 138.144C3114.35 -113.468 2112.84 304.648 2469.35 550.032C3062.85 958.532 1954.77 794.532 1461.85 794.532C966.411 794.532 -369.15 1108.53 164.85 677.348C607.936 319.573 -364.151 -90.4677 384.849 78.0321C620.779 131.108 1902.23 236.686 2243.35 138.144Z" fill="#FDC435"/>
<path fill-rule="evenodd" clip-rule="evenodd" d="M2273.93 111.909C3174.82 -156.871 2141.25 294.873 2510 557C3123.87 993.373 1975.45 813.084 1465.61 813.084C953.17 813.084 -418.326 1145.61 134 685C592.292 302.813 -423.055 -132.302 351.649 47.6954C595.676 104.393 1921.1 217.175 2273.93 111.909Z" stroke="black" stroke-width="10"/>
</svg>
