<svg width="4319" height="1085" viewBox="0 0 4319 1085" fill="none" xmlns="http://www.w3.org/2000/svg">
<path fill-rule="evenodd" clip-rule="evenodd" d="M3536.22 147.585C4900.88 -153.204 3669.07 330.612 4080.31 624.511C4908.82 1216.62 3084.09 932.26 2311.79 932.26C1535.56 932.26 -398.487 1309.94 108.577 767.939C513.502 335.114 -549.129 -125.708 624.381 75.7239C994.028 139.174 3001.76 265.386 3536.22 147.585Z" fill="#FDC435" fill-opacity="0.75"/>
<path fill-rule="evenodd" clip-rule="evenodd" d="M3551.89 129.686C4930.8 -183.827 3686.13 320.455 4101.67 626.788C4938.83 1243.94 3095.04 947.555 2314.68 947.555C1530.33 947.555 -423.91 1341.21 88.4494 776.283C497.604 325.148 -576.125 -155.168 609.641 54.785C983.149 120.919 3011.85 252.47 3551.89 129.686Z" stroke="black" stroke-width="8"/>
</svg>
