<svg width="857" height="790" viewBox="0 0 857 790" fill="none" xmlns="http://www.w3.org/2000/svg">
<path fill-rule="evenodd" clip-rule="evenodd" d="M478.773 13.1113C555.275 27.8406 612.636 83.9299 676.261 128.806C736.86 171.548 813.72 201.437 842.529 269.679C871.154 337.488 838.627 412.751 826.785 485.376C815.181 556.541 820.232 635.301 773.892 690.621C727.325 746.211 651.015 764.226 580.114 779.844C512.972 794.634 446.612 782.688 378.027 777.821C289.286 771.524 190.092 799.589 118.359 747.079C44.384 692.928 9.50165 594.989 3.46912 503.638C-2.37196 415.186 47.5395 336.362 85.9586 256.437C123.651 178.025 151.33 87.8631 225.376 41.9959C299.099 -3.67105 393.572 -3.29262 478.773 13.1113Z" stroke="black" stroke-width="5"/>
<path fill-rule="evenodd" clip-rule="evenodd" d="M477.591 20.905C552.296 35.3336 608.309 90.2783 670.438 134.238C729.613 176.108 804.667 205.387 832.798 272.237C860.751 338.662 828.988 412.389 817.425 483.531C806.093 553.245 811.026 630.397 765.774 684.588C720.302 739.043 645.785 756.691 576.551 771.99C510.987 786.478 446.186 774.776 379.213 770.008C292.558 763.84 195.695 791.332 125.648 739.894C53.4114 686.848 19.3489 590.908 13.4581 501.421C7.75429 414.774 56.4927 337.559 94.0089 259.265C130.815 182.453 157.844 94.1312 230.15 49.2001C302.14 4.46509 394.393 4.8358 477.591 20.905Z" fill="#FDC435"/>
</svg>
